{"title":"The Boy Next Door (2015) BRRIP 1080P NO CINAVIA","uid":13104431,"size":3723947712,"categoryP":"video","categoryS":"hd___movies","magnet":"?xt=urn:btih:3734cd3d377825426b32219e428758d2f3933309&amp;dn=The+Boy+Next+Door+%282015%29+BRRIP+1080P+NO+CINAVIA&amp;tr=udp%3A%2F%2Ftracker.leechers-paradise.org%3A6969&amp;tr=udp%3A%2F%2Fzer0day.ch%3A1337&amp;tr=udp%3A%2F%2Fopen.demonii.com%3A1337&amp;tr=udp%3A%2F%2Ftracker.coppersurfer.tk%3A6969&amp;tr=udp%3A%2F%2Fexodus.desync.com%3A6969","seeders":1,"leechers":0,"uploader":"jmanwf","files":1,"time":1451269596,"description":"Storyline\r\n\r\nWhen a handsome, charming teenager named Noah (Ryan Guzman) moves in next door, newly separated high-school teacher Claire Peterson (Jennifer Lopez) encourages his friendship and engages in a little bit of harmless (or so she thinks) flirtation. Although Noah spends much of the time hanging out with Claire's son, the teen's attraction to her is palpable. One night, Claire gives in to temptation and lets Noah seduce her, but when she tries to end the relationship, he turns violent.\r\n\r\n\r\nVideo\r\nID : 1\r\nFormat : AVC\r\nFormat/Info : Advanced Video Codec\r\nFormat profile :   \r\nFormat settings, CABAC : Yes\r\nFormat settings, ReFrames : 3 frames\r\nCodec ID : V_MPEG4/ISO/AVC\r\nDuration : 1h 30mn\r\nBit rate mode : Variable\r\nBit rate : 5 127 Kbps\r\nMaximum bit rate : 30.0 Mbps\r\nWidth : 1 920 pixels\r\nHeight : 1 080 pixels\r\nDisplay aspect ratio : 16:9\r\nFrame rate mode : Constant\r\nFrame rate : 23.976 fps\r\nColor space : YUV\r\nChroma subsampling : 4:2:0\r\nBit depth : 8 bits\r\nScan type : Progressive\r\nBits/(Pixel*Frame) : 0.103\r\nStream size : 3.25 GiB (84%)\r\nTitle : h264 1920x1080 16/9\r\nDefault : Yes\r\nForced : No\r\nPART_NUMBER : 0\r\n\r\nAudio #1\r\nID : 2\r\nFormat : AC-3\r\nFormat/Info : Audio Coding 3\r\nMode extension : CM (complete main)\r\nFormat settings, Endianness : Big\r\nCodec ID : A_AC3\r\nDuration : 1h 30mn\r\nBit rate mode : Constant\r\nBit rate : 640 Kbps\r\nChannel(s) : 6 channels\r\nChannel positions : Front: L C R, Side: L R, LFE\r\nSampling rate : 48.0 KHz\r\nBit depth : 32 bits\r\nCompression mode : Lossy\r\nDelay relative to video : -125ms\r\nStream size : 415 MiB (11%)\r\nTitle : ac3 48000Hz 6Ch.\r\nLanguage : English\r\nDefault : Yes\r\nForced : No\r\nPART_NUMBER : 1\r\n\r\nAudio #2\r\nID : 3\r\nFormat : AC-3\r\nFormat/Info : Audio Coding 3\r\nFormat profile : Dolby Digital\r\nMode extension : CM (complete main)\r\nFormat settings, Endianness : Big\r\nCodec ID : A_AC3\r\nDuration : 1h 30mn\r\nBit rate mode : Constant\r\nBit rate : 192 Kbps\r\nChannel(s) : 2 channels\r\nChannel positions : Front: L R\r\nSampling rate : 48.0 KHz\r\nBit depth : 32 bits\r\nCompression mode : Lossy\r\nDelay relative to video : -125ms\r\nStream size : 125 MiB (3%)\r\nTitle : ac3 48000Hz 2Ch.\r\nLanguage : English\r\nDefault : Yes\r\nForced : No\r\nPART_NUMBER : 2\r\n\r\nText\r\nID : 4\r\nFormat : PGS\r\nCodec ID : S_HDMV/PGS\r\nCodec ID/Info : Picture based subtitle format used on BDs/HD-DVDs\r\nTitle : hdmv_pgs_subtitle 1920x1080\r\nLanguage : English\r\nDefault : Yes\r\nForced : No\r\nPART_NUMBER : 3 \r\n\r\n\r\n \nhttp://s11.postimg.org/4jm8n5l03/image.jpg\r\n\r\n \nhttp://s11.postimg.org/9ky829hub/image.jpg\r\n\r\n \nhttp://s11.postimg.org/gmrkapw2b/image.jpg","torrent":{"xt":"urn:btih:3734cd3d377825426b32219e428758d2f3933309","amp;dn":"The+Boy+Next+Door+%282015%29+BRRIP+1080P+NO+CINAVIA","amp;tr":["udp%3A%2F%2Ftracker.leechers-paradise.org%3A6969","udp%3A%2F%2Fzer0day.ch%3A1337","udp%3A%2F%2Fopen.demonii.com%3A1337","udp%3A%2F%2Ftracker.coppersurfer.tk%3A6969","udp%3A%2F%2Fexodus.desync.com%3A6969"],"infoHash":"3734cd3d377825426b32219e428758d2f3933309","infoHashBuffer":{"type":"Buffer","data":[55,52,205,61,55,120,37,66,107,50,33,158,66,135,88,210,243,147,51,9]},"announce":[],"urlList":[]}}